<?xml version="1.0" encoding="UTF-8"?>
<svg xmlns="http://www.w3.org/2000/svg" xmlns:xlink="http://www.w3.org/1999/xlink" width="54pt" height="48pt" viewBox="0 0 54 48" version="1.1">
<g id="surface1">
<path style=" stroke:none;fill-rule:nonzero;fill:black;fill-opacity:1;" d="M 36.238281 10.453125 L 37.652344 33.792969 L 36.625 33.765625 C 33.226562 33.6875 29.90625 34.589844 27 36.390625 C 24.09375 34.589844 20.773438 33.765625 17.375 33.765625 C 13.105469 33.765625 9.683594 34.769531 5.796875 36.363281 L 8.730469 12.148438 C 11.40625 11.042969 14.492188 10.453125 17.375 10.453125 C 21.234375 10.453125 24.296875 11.6875 27 14.441406 C 29.597656 11.789062 32.53125 10.527344 36.238281 10.453125 Z M 53.351562 42 C 50.957031 42 48.898438 41.511719 46.738281 40.535156 C 43.519531 39.066406 40.175781 38.191406 36.625 38.191406 C 32.96875 38.191406 29.597656 39.402344 27 42 C 24.402344 39.402344 21.03125 38.191406 17.375 38.191406 C 13.824219 38.191406 10.480469 39.066406 7.261719 40.535156 C 5.179688 41.460938 3.070312 42 0.777344 42 L 0.648438 42 L 4.636719 9.269531 C 8.316406 7.183594 12.796875 6 17.042969 6 C 20.515625 6 24.09375 6.71875 27 8.726562 C 29.90625 6.71875 33.484375 6 36.957031 6 C 41.203125 6 45.683594 7.183594 49.363281 9.269531 Z M 49.285156 37.804688 L 46.09375 11.53125 C 43.210938 10.21875 39.789062 9.523438 36.625 9.523438 C 33.019531 9.523438 29.652344 10.65625 27 13.152344 C 24.347656 10.65625 20.980469 9.523438 17.375 9.523438 C 14.210938 9.523438 10.789062 10.21875 7.90625 11.53125 L 4.714844 37.804688 C 9.140625 35.980469 12.488281 34.667969 17.375 34.667969 C 20.902344 34.667969 24.015625 35.566406 27 37.445312 C 29.984375 35.566406 33.097656 34.667969 36.625 34.667969 C 41.511719 34.667969 44.859375 35.980469 49.285156 37.804688 Z M 49.285156 37.804688 "/>
</g>
</svg>
